<svg xmlns:dc="http://purl.org/dc/elements/1.1/" xmlns:cc="http://creativecommons.org/ns#" xmlns:rdf="http://www.w3.org/1999/02/22-rdf-syntax-ns#" xmlns:svg="http://www.w3.org/2000/svg" xmlns="http://www.w3.org/2000/svg" viewBox="0 0 32 40" version="1.1" x="0px" y="0px"><g style="" display="inline"><path style="color:#000000;font-style:normal;font-variant:normal;font-weight:normal;font-stretch:normal;font-size:medium;line-height:normal;font-family:sans-serif;font-variant-ligatures:normal;font-variant-position:normal;font-variant-caps:normal;font-variant-numeric:normal;font-variant-alternates:normal;font-variant-east-asian:normal;font-feature-settings:normal;font-variation-settings:normal;text-indent:0;text-align:start;text-decoration:none;text-decoration-line:none;text-decoration-style:solid;text-decoration-color:#000000;letter-spacing:normal;word-spacing:normal;text-transform:none;writing-mode:lr-tb;direction:ltr;text-orientation:mixed;dominant-baseline:auto;baseline-shift:baseline;text-anchor:start;white-space:normal;shape-padding:0;shape-margin:0;inline-size:0;clip-rule:nonzero;display:inline;overflow:visible;visibility:visible;opacity:1;isolation:auto;mix-blend-mode:normal;color-interpolation:sRGB;color-interpolation-filters:linearRGB;solid-color:#000000;solid-opacity:1;vector-effect:none;fill:#000000;fill-opacity:1;fill-rule:nonzero;stroke:none;stroke-linecap:round;stroke-linejoin:miter;stroke-miterlimit:4;stroke-dasharray:none;stroke-dashoffset:0;stroke-opacity:1;color-rendering:auto;image-rendering:auto;shape-rendering:auto;text-rendering:auto;enable-background:accumulate;stop-color:#000000;stop-opacity:1" d="M 16,2 C 14.355297,2 13,3.355297 13,5 V 6.458984 C 8.94284,7.733224 6,11.522409 6,16 v 8 H 5.001953 c -0.552285,0 -1,0.447715 -1,1 0,0.552285 0.447715,1 1,1 2.332682,0 4.665365,0 6.998047,0 0,2.197294 1.802706,4 4,4 2.197294,0 4,-1.802706 4,-4 2.332682,0 4.665365,0 6.998047,0 0.552285,0 1,-0.447715 1,-1 0,-0.552285 -0.447715,-1 -1,-1 H 26 V 16 C 26,11.522409 23.05716,7.733224 19,6.458984 V 5 C 19,3.355297 17.644703,2 16,2 Z m 0,2 c 0.571297,0 1,0.428703 1,1 v 1.048828 c -0.68712,-0.08119 -1.33871,-0.09443 -2,2e-6 V 5 c 0,-0.571297 0.428703,-1 1,-1 z m 0,4 c 4.449297,0 8,3.550703 8,8 v 8 H 8 v -8 c 0,-4.449297 3.550703,-8 8,-8 z m -2,18 c 1.312306,-5.32e-4 2.749788,0.0063 4,0.0063 C 18,27.121604 17.115756,28 16,28 14.883586,28 14,27.116414 14,26 Z"/></g><text x="0" y="47" fill="#000000" font-size="5px" font-weight="bold" font-family="'Helvetica Neue', Helvetica, Arial-Unicode, Arial, Sans-serif">Created by Adrian Adam</text><text x="0" y="52" fill="#000000" font-size="5px" font-weight="bold" font-family="'Helvetica Neue', Helvetica, Arial-Unicode, Arial, Sans-serif">from the Noun Project</text></svg>