<svg width="50" height="50" viewBox="0 0 50 50" fill="none" xmlns="http://www.w3.org/2000/svg">
<path d="M5 38.3333V25C5 14 14 5 25 5C36 5 45 14 45 25V38.3333" stroke="#F3A13B" stroke-width="4" stroke-miterlimit="10" stroke-linecap="round" stroke-linejoin="round"/>
<path d="M13.3334 25.1667C12.8334 25 12.1667 25 11.6667 25C6.16669 25 1.66669 29.5 1.66669 35C1.66669 40.5 6.16669 45 11.6667 45C12.1667 45 12.8334 45 13.3334 44.8333V25.1667Z" fill="#F45B49" stroke="#F45B49" stroke-width="2" stroke-miterlimit="10" stroke-linecap="round" stroke-linejoin="round"/>
<path d="M36.6667 25.1667C37.1667 25 37.8334 25 38.3334 25C43.8334 25 48.3334 29.5 48.3334 35C48.3334 40.5 43.8334 45 38.3334 45C37.8334 45 37.1667 45 36.6667 44.8333V25.1667Z" fill="#F45B49" stroke="#F45B49" stroke-width="2" stroke-miterlimit="10" stroke-linecap="round" stroke-linejoin="round"/>
</svg>
