<svg width="512" height="512" viewBox="0 0 512 512" fill="none" xmlns="http://www.w3.org/2000/svg">
<g clip-path="url(#clip0)">
<path d="M54.211 249.7C54.211 249.7 74.439 279.417 116.835 304.571C116.835 304.571 86.13 45.069 286.193 0C234.936 188.121 351.393 241.174 393.844 141.786C464.737 236.437 410.91 319.015 410.91 319.015C439.979 323.203 464.397 291.445 464.397 291.445C464.615 295.357 464.737 299.296 464.737 303.263C464.738 418.545 371.283 512 256 512C140.717 512 47.262 418.545 47.262 303.262C47.262 284.744 49.686 266.794 54.211 249.7Z" fill="#F45B49"/>
<path d="M464.398 291.445C464.398 291.445 439.98 323.203 410.911 319.015C410.911 319.015 464.738 236.437 393.845 141.786C351.394 241.174 234.937 188.121 286.194 0C275.479 2.414 265.431 5.447 256 9.018V512C371.283 512 464.738 418.545 464.738 303.262C464.738 299.295 464.616 295.357 464.398 291.445Z" fill="#F45B49"/>
<path d="M164.456 420.456C164.456 471.014 205.442 512 256 512C306.558 512 347.544 471.014 347.544 420.456C347.544 393.395 335.803 369.077 317.136 352.318C281.742 400.403 231.304 327.462 270.612 274.196C270.612 274.196 164.456 287.499 164.456 420.456Z" fill="#FBBF00"/>
<path d="M347.544 420.456C347.544 393.395 335.803 369.077 317.136 352.318C281.742 400.403 231.304 327.462 270.612 274.196C270.612 274.196 264.844 274.921 256 277.712V512C306.558 512 347.544 471.014 347.544 420.456Z" fill="#FBBF00"/>
</g>
<defs>
<clipPath id="clip0">
<rect width="512" height="512" fill="white"/>
</clipPath>
</defs>
</svg>
